<svg xmlns="http://www.w3.org/2000/svg" xmlns:xlink="http://www.w3.org/1999/xlink" id="Calque_1" x="0px" y="0px" viewBox="0 0 673.42 348.35" style="enable-background:new 0 0 673.42 348.35;" xml:space="preserve"><style type="text/css">	.st0{fill:#424242;}	.st1{fill:#EC6925;}	.st2{fill:#464547;}</style><path class="st0" d="M363.12,0.35h-82.14c-40.13,0-72.78,32.65-72.78,72.78c0,33.15,22.29,61.17,52.66,69.92l9.03-18.93 c-20.47-4.45-36.5-20.93-40.26-41.64h93.13L363.12,0.35z M230.02,61.88c5.15-23.39,26.05-40.94,50.96-40.94h49.08l-20.12,40.94 H230.02z"></path><path class="st1" d="M453.16,11.8c-2.88-1.84-5.9-3.49-9.04-4.92l-0.29-0.16l-0.01,0.02c-9.05-4.08-19.08-6.37-29.63-6.4L395.64,0.1 l-0.2-0.1h-7.07L358,63l-55.68,115.5h22.86l27.92-57.92l0,0l48.19-99.98l12.48,0.34l0.28,0c9.64,0,18.68,2.64,26.43,7.22l0.11,0.08 l0.59,0.37c0.42,0.24,0.81,0.5,1.22,0.75c14.33,9.31,23.83,25.45,23.83,43.77c0,11.47-3.21,23.02-9.43,32.38 c-9.54,12.51-24.6,20.61-41.51,20.61h-4.53l-10.03,20.59h14.56c40.13,0,72.78-32.65,72.78-72.78 C488.08,48.58,474.73,24.98,453.16,11.8"></path><polygon class="st0" points="280.51,124.53 254.77,178.5 277.58,178.5 303.32,124.53 "></polygon><polygon class="st0" points="396.49,82.02 349.65,178.5 372.54,178.5 419.38,82.02 "></polygon><g>	<path class="st2" d="M49.73,194.68c-2.29-2.3-5.02-4.12-8.09-5.44c-3.09-1.32-6.43-1.99-9.91-1.99H0v96.22h14.9v-34.34h16.82  c3.48,0,6.82-0.67,9.91-1.99c3.07-1.31,5.8-3.14,8.09-5.43c2.29-2.29,4.12-5,5.43-8.05l0,0c1.32-3.08,1.99-6.41,1.99-9.89v-11.09  c0-3.48-0.67-6.82-1.99-9.92C53.85,199.69,52.02,196.97,49.73,194.68 M42.25,212.68v11.09c0,1.53-0.27,2.91-0.84,4.21  c-0.58,1.33-1.35,2.46-2.35,3.44c-1,0.98-2.18,1.77-3.51,2.35c-1.3,0.56-2.68,0.84-4.21,0.84H14.9v-32.83h16.45  c1.53,0,2.91,0.28,4.21,0.84c1.32,0.57,2.49,1.37,3.49,2.36c1.01,1.01,1.78,2.15,2.36,3.48C41.98,209.77,42.25,211.15,42.25,212.68  "></path>	<path class="st2" d="M78.25,214.04c-1.64,0.86-3.13,1.89-4.49,3.09l-2.79-4.33h-7.86v70.68h14.53v-48.86c0-1.07,0.2-2.05,0.59-2.97  c0.41-0.96,0.95-1.76,1.64-2.45c0.69-0.69,1.5-1.23,2.45-1.64c0.92-0.4,1.9-0.59,2.97-0.59h11.1v-15.4h-7.92  C84.82,211.56,81.38,212.39,78.25,214.04"></path>	<path class="st2" d="M142.82,218.05c-2-2-4.38-3.6-7.06-4.75c-2.71-1.15-5.61-1.74-8.64-1.74h-5.11c-3.03,0-5.93,0.59-8.64,1.74  c-2.68,1.14-5.05,2.74-7.06,4.75c-2.01,2.01-3.61,4.39-4.75,7.06c-1.15,2.7-1.74,5.61-1.74,8.64v28.79c0,3.03,0.59,5.94,1.74,8.64  c1.14,2.68,2.74,5.06,4.75,7.06c2.01,2.01,4.38,3.61,7.06,4.75c2.71,1.16,5.61,1.74,8.64,1.74h5.11c3.03,0,5.93-0.59,8.64-1.74  c2.68-1.14,5.05-2.74,7.06-4.75c2.01-2.01,3.61-4.38,4.75-7.06c1.15-2.7,1.74-5.61,1.74-8.64v-28.79c0-3.03-0.59-5.94-1.74-8.64  C146.42,222.43,144.83,220.06,142.82,218.05 M134.78,233.31v29.66c0,1.08-0.19,2.05-0.59,2.97c-0.41,0.96-0.95,1.76-1.65,2.45  c-0.69,0.69-1.5,1.23-2.45,1.64c-0.92,0.4-1.89,0.59-2.97,0.59h-5.11c-1.08,0-2.05-0.19-2.98-0.59c-0.95-0.41-1.76-0.95-2.45-1.64  c-0.69-0.69-1.23-1.5-1.64-2.45c-0.4-0.93-0.59-1.9-0.59-2.97v-29.66c0-1.07,0.19-2.05,0.59-2.97c0.41-0.96,0.95-1.76,1.64-2.45  c0.69-0.69,1.5-1.23,2.45-1.64c0.93-0.4,1.9-0.59,2.98-0.59h5.11c1.07,0,2.05,0.19,2.97,0.59c0.96,0.41,1.76,0.95,2.45,1.65  c0.69,0.69,1.23,1.5,1.64,2.45C134.58,231.27,134.78,232.24,134.78,233.31"></path>	<polygon class="st2" points="193.77,212.81 179.39,254.76 164.96,212.81 149.98,212.81 175.04,283.48 183.69,283.48 208.74,212.81    "></polygon>	<path class="st2" d="M310.43,218.05c-2-2-4.38-3.6-7.06-4.75c-2.71-1.15-5.61-1.74-8.64-1.74h-1.93c-3.67,0-7.11,0.84-10.23,2.48  c-1.64,0.86-3.13,1.89-4.49,3.09l-2.79-4.33h-7.86v70.68h14.53v-50.17c0-1.07,0.19-2.05,0.59-2.97c0.41-0.96,0.95-1.76,1.64-2.45  c0.69-0.69,1.5-1.23,2.45-1.64c0.93-0.4,1.9-0.59,2.98-0.59h5.11c1.07,0,2.05,0.19,2.97,0.59c0.96,0.42,1.76,0.95,2.46,1.65  c0.69,0.69,1.23,1.5,1.64,2.45c0.4,0.93,0.59,1.9,0.59,2.98v50.17h14.53v-49.73c0-3.03-0.59-5.94-1.74-8.64  C314.04,222.43,312.44,220.06,310.43,218.05"></path>	<path class="st1" d="M630.32,202.77c-1.31-3.07-3.14-5.8-5.43-8.09c-2.29-2.3-5.02-4.12-8.09-5.44c-3.09-1.32-6.43-1.99-9.91-1.99  h-40.3v96.22h14.9v-34.34h25.4c3.48,0,6.82-0.67,9.91-1.99c3.07-1.31,5.8-3.14,8.09-5.43c2.29-2.29,4.12-5,5.43-8.05l0,0  c1.32-3.08,1.99-6.41,1.99-9.89v-11.09C632.31,209.2,631.64,205.87,630.32,202.77 M617.41,212.68v11.09c0,1.53-0.27,2.91-0.84,4.21  c-0.58,1.33-1.35,2.46-2.35,3.44c-1,0.98-2.18,1.77-3.51,2.35c-1.3,0.56-2.68,0.84-4.21,0.84h-25.03v-32.83h25.03  c1.53,0,2.91,0.28,4.21,0.84c1.32,0.57,2.49,1.37,3.49,2.36c1.01,1.01,1.78,2.15,2.36,3.48  C617.13,209.77,617.41,211.15,617.41,212.68"></path>	<rect x="656.52" y="187.26" class="st1" width="16.45" height="96.22"></rect>	<polygon class="st0" points="552.69,283.73 536.73,283.73 542.08,268.89 558.05,268.89  "></polygon>	<polygon class="st0" points="624.65,283.73 608.68,283.73 614.04,268.89 630.01,268.89  "></polygon>	<path class="st2" d="M244.38,262.97c0,1.08-0.19,2.05-0.59,2.97c-0.41,0.96-0.95,1.76-1.65,2.45c-0.69,0.69-1.5,1.23-2.45,1.64  c-0.92,0.4-1.89,0.59-2.97,0.59h-5.11c-1.08,0-2.05-0.19-2.98-0.59c-0.95-0.41-1.76-0.95-2.45-1.64c-0.69-0.69-1.23-1.5-1.64-2.45  c-0.4-0.93-0.59-1.9-0.59-2.97V252.2h34.96v-18.45c0-3.03-0.59-5.94-1.74-8.64c-1.14-2.68-2.74-5.05-4.75-7.06  c-2-2-4.38-3.6-7.06-4.75c-2.71-1.15-5.61-1.74-8.64-1.74h-5.11c-3.03,0-5.93,0.59-8.64,1.74c-2.68,1.14-5.06,2.74-7.06,4.75  c-2.01,2.01-3.61,4.39-4.75,7.06c-1.15,2.7-1.74,5.61-1.74,8.64v28.79c0,3.03,0.59,5.94,1.74,8.64c1.14,2.68,2.74,5.06,4.75,7.06  c2.01,2.01,4.38,3.61,7.06,4.75c2.7,1.16,5.61,1.74,8.64,1.74h5.11c3.03,0,5.93-0.59,8.64-1.74c2.68-1.14,5.05-2.74,7.06-4.75  c2.01-2.01,3.61-4.38,4.75-7.06c1.14-2.68,1.73-5.56,1.74-8.56h-14.52V262.97z M223.95,233.31c0-1.07,0.19-2.05,0.59-2.97  c0.41-0.96,0.95-1.76,1.64-2.45c0.69-0.69,1.5-1.23,2.45-1.64c0.93-0.4,1.9-0.59,2.98-0.59h5.11c1.07,0,2.05,0.19,2.97,0.59  c0.96,0.41,1.76,0.95,2.45,1.65c0.69,0.69,1.23,1.5,1.64,2.45c0.4,0.93,0.59,1.9,0.59,2.98v6.04h-20.43V233.31z"></path>	<path class="st2" d="M418.41,262.97c0,1.08-0.19,2.05-0.59,2.97c-0.41,0.96-0.95,1.76-1.65,2.45c-0.69,0.69-1.5,1.23-2.45,1.64  c-0.92,0.4-1.89,0.59-2.97,0.59h-5.11c-1.08,0-2.05-0.19-2.98-0.59c-0.95-0.41-1.76-0.95-2.45-1.64c-0.69-0.69-1.23-1.5-1.64-2.45  c-0.4-0.93-0.59-1.9-0.59-2.97V252.2h34.96v-18.45c0-3.03-0.59-5.94-1.74-8.64c-1.14-2.68-2.74-5.05-4.75-7.06  c-2-2-4.38-3.6-7.06-4.75c-2.71-1.15-5.61-1.74-8.64-1.74h-5.11c-3.03,0-5.93,0.59-8.64,1.74c-2.68,1.14-5.06,2.74-7.06,4.75  c-2.01,2.01-3.61,4.39-4.75,7.06c-1.15,2.7-1.74,5.61-1.74,8.64v28.79c0,3.03,0.59,5.94,1.74,8.64c1.14,2.68,2.74,5.06,4.75,7.06  c2.01,2.01,4.38,3.61,7.06,4.75c2.7,1.16,5.61,1.74,8.64,1.74h5.11c3.03,0,5.93-0.59,8.64-1.74c2.68-1.14,5.05-2.74,7.06-4.75  c2.01-2.01,3.61-4.38,4.75-7.06c1.14-2.68,1.73-5.56,1.74-8.56h-14.52V262.97z M397.98,233.31c0-1.07,0.19-2.05,0.59-2.97  c0.41-0.96,0.95-1.76,1.64-2.45c0.69-0.69,1.5-1.23,2.45-1.64c0.93-0.4,1.9-0.59,2.98-0.59h5.11c1.07,0,2.05,0.19,2.97,0.59  c0.96,0.41,1.76,0.95,2.45,1.65c0.69,0.69,1.23,1.5,1.64,2.45c0.4,0.93,0.59,1.9,0.59,2.98v6.04h-20.43V233.31z"></path>	<path class="st2" d="M360.4,262.97c0,1.08-0.19,2.05-0.59,2.97c-0.41,0.96-0.95,1.76-1.65,2.46c-0.69,0.69-1.5,1.23-2.45,1.64  c-0.92,0.4-1.89,0.59-2.97,0.59h-5.11c-1.08,0-2.05-0.19-2.98-0.59c-0.95-0.41-1.76-0.95-2.45-1.64c-0.69-0.69-1.23-1.5-1.64-2.45  c-0.4-0.92-0.59-1.9-0.59-2.97v-29.66c0-1.07,0.19-2.05,0.59-2.97c0.41-0.95,0.95-1.76,1.64-2.45c0.69-0.69,1.5-1.23,2.45-1.64  c0.93-0.4,1.9-0.59,2.98-0.59h5.11c1.07,0,2.05,0.19,2.97,0.59c0.96,0.41,1.76,0.95,2.45,1.65c0.69,0.69,1.23,1.5,1.64,2.45  c0.4,0.93,0.59,1.9,0.59,2.98v2.07h14.53v-1.64c0-3.03-0.59-5.94-1.74-8.64c-1.14-2.68-2.74-5.05-4.75-7.07  c-2-2-4.38-3.6-7.06-4.75c-2.71-1.15-5.61-1.74-8.64-1.74h-5.11c-3.03,0-5.93,0.59-8.64,1.74c-2.68,1.14-5.05,2.74-7.06,4.75  c-2.01,2.01-3.61,4.39-4.75,7.06c-1.15,2.7-1.74,5.61-1.74,8.64v28.79c0,3.03,0.59,5.94,1.74,8.64c1.14,2.68,2.74,5.06,4.75,7.06  c2.01,2.01,4.38,3.61,7.06,4.75c2.71,1.16,5.61,1.74,8.64,1.74h5.11c3.03,0,5.93-0.59,8.64-1.74c2.68-1.14,5.05-2.74,7.06-4.75  c2.01-2.01,3.61-4.38,4.75-7.06c1.14-2.68,1.73-5.56,1.74-8.56H360.4V262.97z"></path>	<path class="st1" d="M495.45,268.85c-5.87,0-10.65-4.78-10.65-10.65v-15.53h37.74v-14.53h-37.74v-15.56  c0-5.87,4.78-10.65,10.65-10.65h33.42v-14.93h-33.42c-14.1,0-25.58,11.47-25.58,25.58v45.62c0,14.1,11.47,25.58,25.58,25.58h28.27  l5.97-14.82L495.45,268.85z"></path></g><g>	<path class="st1" d="M0.46,339.08v-32.42h18.1v2.78H3.35v12.05h12.31v2.78H3.35v12.03h15.21v2.78H0.46z"></path>	<path class="st1" d="M35.74,348.35v-11.21c-0.63,0.75-1.38,1.34-2.27,1.76c-0.88,0.42-1.84,0.63-2.87,0.63h-0.7  c-0.93,0-1.8-0.18-2.62-0.53c-0.82-0.35-1.54-0.84-2.15-1.46c-0.61-0.62-1.1-1.34-1.45-2.17c-0.35-0.83-0.53-1.71-0.53-2.65v-10.44  c0-0.93,0.18-1.82,0.53-2.64c0.35-0.83,0.83-1.55,1.45-2.17c0.61-0.62,1.33-1.1,2.15-1.46c0.82-0.35,1.7-0.53,2.62-0.53h0.7  c1.12,0,2.15,0.25,3.1,0.76c0.94,0.51,1.73,1.19,2.36,2.05l1.53-2.35h0.92v32.42H35.74z M35.74,322.13c0-0.56-0.1-1.08-0.31-1.57  c-0.21-0.49-0.49-0.92-0.85-1.28c-0.36-0.36-0.78-0.65-1.27-0.86c-0.49-0.21-1.01-0.32-1.56-0.32h-1.84  c-0.55,0-1.07,0.11-1.56,0.32c-0.49,0.21-0.91,0.5-1.27,0.86c-0.36,0.36-0.64,0.79-0.85,1.28c-0.21,0.49-0.31,1.01-0.31,1.57v10.76  c0,0.56,0.1,1.08,0.31,1.57c0.21,0.49,0.49,0.92,0.85,1.28c0.36,0.36,0.78,0.65,1.27,0.86c0.49,0.21,1.01,0.32,1.56,0.32h1.84  c0.55,0,1.07-0.11,1.56-0.32c0.49-0.21,0.91-0.5,1.27-0.86s0.64-0.79,0.85-1.28c0.21-0.49,0.31-1.01,0.31-1.57V322.13z"></path>	<path class="st1" d="M58.44,339.08l-1.53-2.35c-0.63,0.86-1.41,1.54-2.36,2.05c-0.94,0.51-1.97,0.76-3.1,0.76h-0.7  c-0.93,0-1.8-0.18-2.62-0.53c-0.82-0.35-1.54-0.84-2.15-1.46c-0.61-0.62-1.1-1.34-1.45-2.17c-0.35-0.83-0.53-1.71-0.53-2.65v-16.8  h2.76v16.95c0,0.56,0.1,1.08,0.31,1.57c0.21,0.49,0.49,0.92,0.85,1.28s0.78,0.65,1.27,0.86c0.49,0.21,1.01,0.32,1.56,0.32h1.84  c0.55,0,1.07-0.11,1.56-0.32c0.49-0.21,0.91-0.5,1.27-0.86s0.64-0.79,0.85-1.28c0.21-0.49,0.31-1.01,0.31-1.57v-16.95h2.76v23.15  H58.44z"></path>	<path class="st1" d="M65.57,310.37v-3.71h3.21v3.71H65.57z M65.8,339.08v-23.15h2.76v23.15H65.8z"></path>	<path class="st1" d="M89.81,335.38c-0.35,0.83-0.83,1.55-1.45,2.17c-0.61,0.62-1.33,1.1-2.15,1.46c-0.82,0.35-1.7,0.53-2.62,0.53  h-0.7c-1.03,0-1.99-0.21-2.87-0.63c-0.88-0.42-1.64-1.01-2.27-1.76v11.21h-2.76v-32.42h0.92l1.5,2.35  c0.63-0.86,1.42-1.54,2.37-2.05c0.95-0.51,1.99-0.76,3.11-0.76h0.7c0.93,0,1.8,0.18,2.62,0.53c0.82,0.35,1.54,0.84,2.15,1.46  c0.61,0.62,1.09,1.34,1.45,2.17c0.35,0.83,0.53,1.71,0.53,2.64v10.44C90.33,333.67,90.16,334.55,89.81,335.38z M87.57,322.13  c0-0.56-0.1-1.08-0.31-1.57c-0.21-0.49-0.49-0.92-0.85-1.28c-0.36-0.36-0.78-0.65-1.27-0.86c-0.49-0.21-1.01-0.32-1.56-0.32h-1.84  c-0.55,0-1.07,0.11-1.56,0.32c-0.49,0.21-0.91,0.5-1.27,0.86c-0.36,0.36-0.64,0.79-0.85,1.28c-0.21,0.49-0.31,1.01-0.31,1.57v10.76  c0,0.56,0.1,1.08,0.31,1.57c0.21,0.49,0.49,0.92,0.85,1.28c0.36,0.36,0.78,0.65,1.27,0.86c0.49,0.21,1.01,0.32,1.56,0.32h1.84  c0.55,0,1.07-0.11,1.56-0.32c0.49-0.21,0.91-0.5,1.27-0.86c0.36-0.36,0.64-0.79,0.85-1.28c0.21-0.49,0.31-1.01,0.31-1.57V322.13z"></path>	<path class="st1" d="M110.67,335.38c-0.35,0.83-0.83,1.55-1.45,2.17c-0.61,0.62-1.33,1.1-2.15,1.46c-0.82,0.35-1.7,0.53-2.62,0.53  h-1.84c-0.93,0-1.8-0.18-2.62-0.53c-0.82-0.35-1.54-0.84-2.15-1.46c-0.61-0.62-1.1-1.34-1.45-2.17c-0.35-0.83-0.53-1.71-0.53-2.65  v-10.44c0-0.93,0.18-1.82,0.53-2.64c0.35-0.83,0.83-1.55,1.45-2.17c0.61-0.62,1.33-1.1,2.15-1.46c0.82-0.35,1.7-0.53,2.62-0.53  h1.84c0.93,0,1.8,0.18,2.62,0.53c0.82,0.35,1.54,0.84,2.15,1.46c0.61,0.62,1.09,1.34,1.45,2.17c0.35,0.83,0.53,1.71,0.53,2.64v5.45  H98.61v5.15c0,0.56,0.1,1.08,0.31,1.57c0.21,0.49,0.49,0.92,0.85,1.28c0.36,0.36,0.78,0.65,1.27,0.86  c0.49,0.21,1.01,0.32,1.56,0.32h1.84c0.55,0,1.07-0.11,1.56-0.32c0.49-0.21,0.91-0.5,1.27-0.86c0.36-0.36,0.64-0.79,0.85-1.28  c0.21-0.49,0.31-1.01,0.31-1.57v-1.54l2.76,0.45v0.93C111.19,333.67,111.02,334.55,110.67,335.38z M108.43,322.13  c0-0.56-0.1-1.08-0.31-1.57c-0.21-0.49-0.49-0.92-0.85-1.28c-0.36-0.36-0.78-0.65-1.27-0.86c-0.49-0.21-1.01-0.32-1.56-0.32h-1.84  c-0.55,0-1.07,0.11-1.56,0.32c-0.49,0.21-0.91,0.5-1.27,0.86c-0.36,0.36-0.64,0.79-0.85,1.28c-0.21,0.49-0.31,1.01-0.31,1.57v3.44  h9.82V322.13z"></path>	<path class="st1" d="M140.96,339.08v-16.95c0-0.56-0.1-1.08-0.31-1.57c-0.21-0.49-0.49-0.92-0.85-1.28  c-0.36-0.36-0.78-0.65-1.27-0.86c-0.49-0.21-1.01-0.32-1.56-0.32h-1.37c-0.55,0-1.07,0.11-1.56,0.32c-0.49,0.21-0.91,0.5-1.28,0.86  c-0.37,0.36-0.65,0.79-0.86,1.28c-0.21,0.49-0.31,1.01-0.31,1.57v16.95h-2.74v-16.95c0-0.56-0.1-1.08-0.31-1.57  c-0.21-0.49-0.5-0.92-0.86-1.28c-0.37-0.36-0.79-0.65-1.28-0.86c-0.49-0.21-1.01-0.32-1.56-0.32h-1.37c-0.55,0-1.07,0.11-1.56,0.32  c-0.49,0.21-0.91,0.5-1.27,0.86c-0.36,0.36-0.64,0.79-0.85,1.28c-0.21,0.49-0.31,1.01-0.31,1.57v16.95h-2.76v-23.15h0.92l1.5,2.35  c0.63-0.86,1.42-1.54,2.37-2.05c0.95-0.51,1.99-0.76,3.11-0.76h0.22c1.3,0,2.47,0.32,3.52,0.97c1.05,0.65,1.85,1.51,2.42,2.58  c0.28-0.53,0.64-1.01,1.05-1.45c0.42-0.44,0.88-0.81,1.39-1.12c0.51-0.31,1.06-0.55,1.66-0.72c0.6-0.17,1.22-0.26,1.86-0.26h0.22  c0.93,0,1.8,0.18,2.62,0.53c0.82,0.35,1.54,0.84,2.15,1.46c0.61,0.62,1.1,1.34,1.45,2.17c0.35,0.83,0.53,1.71,0.53,2.64v16.8  H140.96z"></path>	<path class="st1" d="M164.05,335.38c-0.35,0.83-0.83,1.55-1.45,2.17c-0.61,0.62-1.33,1.1-2.15,1.46c-0.82,0.35-1.7,0.53-2.62,0.53  h-1.84c-0.93,0-1.8-0.18-2.62-0.53c-0.82-0.35-1.54-0.84-2.15-1.46c-0.61-0.62-1.1-1.34-1.45-2.17c-0.35-0.83-0.53-1.71-0.53-2.65  v-10.44c0-0.93,0.18-1.82,0.53-2.64c0.35-0.83,0.83-1.55,1.45-2.17c0.61-0.62,1.33-1.1,2.15-1.46c0.82-0.35,1.7-0.53,2.62-0.53  h1.84c0.93,0,1.8,0.18,2.62,0.53c0.82,0.35,1.54,0.84,2.15,1.46c0.61,0.62,1.09,1.34,1.45,2.17c0.35,0.83,0.53,1.71,0.53,2.64v5.45  h-12.58v5.15c0,0.56,0.1,1.08,0.31,1.57c0.21,0.49,0.49,0.92,0.85,1.28s0.78,0.65,1.27,0.86c0.49,0.21,1.01,0.32,1.56,0.32h1.84  c0.55,0,1.07-0.11,1.56-0.32c0.49-0.21,0.91-0.5,1.27-0.86s0.64-0.79,0.85-1.28c0.21-0.49,0.31-1.01,0.31-1.57v-1.54l2.76,0.45  v0.93C164.58,333.67,164.4,334.55,164.05,335.38z M161.82,322.13c0-0.56-0.1-1.08-0.31-1.57c-0.21-0.49-0.49-0.92-0.85-1.28  c-0.36-0.36-0.78-0.65-1.27-0.86c-0.49-0.21-1.01-0.32-1.56-0.32h-1.84c-0.55,0-1.07,0.11-1.56,0.32c-0.49,0.21-0.91,0.5-1.27,0.86  c-0.36,0.36-0.64,0.79-0.85,1.28c-0.21,0.49-0.31,1.01-0.31,1.57v3.44h9.82V322.13z"></path>	<path class="st1" d="M182.68,339.08v-16.95c0-0.56-0.1-1.08-0.31-1.57c-0.21-0.49-0.49-0.92-0.85-1.28  c-0.36-0.36-0.78-0.65-1.27-0.86c-0.49-0.21-1.01-0.32-1.56-0.32h-1.84c-0.55,0-1.07,0.11-1.56,0.32c-0.49,0.21-0.91,0.5-1.27,0.86  c-0.36,0.36-0.64,0.79-0.85,1.28c-0.21,0.49-0.31,1.01-0.31,1.57v16.95h-2.76v-23.15h0.92l1.5,2.35c0.63-0.86,1.42-1.54,2.37-2.05  c0.95-0.51,1.99-0.76,3.11-0.76h0.7c0.93,0,1.8,0.18,2.62,0.53c0.82,0.35,1.54,0.84,2.15,1.46c0.61,0.62,1.09,1.34,1.45,2.17  c0.35,0.83,0.53,1.71,0.53,2.64v16.8H182.68z"></path>	<path class="st1" d="M199.32,339.08c-0.84,0-1.63-0.16-2.37-0.47c-0.74-0.32-1.38-0.75-1.93-1.31c-0.55-0.56-0.98-1.21-1.3-1.94  c-0.32-0.74-0.48-1.53-0.48-2.37v-14.4h-4.13v-2.64h4.13v-5.56l2.76-0.45v6.01h5.83v2.64H196v14.54c0,0.47,0.09,0.9,0.26,1.3  c0.17,0.4,0.41,0.75,0.71,1.05c0.3,0.3,0.65,0.54,1.05,0.71c0.4,0.17,0.84,0.26,1.3,0.26h2.51v2.64H199.32z"></path>	<path class="st1" d="M222.69,333.21c0,0.93-0.19,1.79-0.56,2.56c-0.37,0.78-0.88,1.44-1.53,2c-0.64,0.56-1.39,0.99-2.23,1.3  c-0.84,0.31-1.73,0.46-2.66,0.46h-1.84c-0.93,0-1.81-0.18-2.66-0.53c-0.84-0.35-1.59-0.84-2.22-1.46  c-0.64-0.62-1.14-1.34-1.53-2.17c-0.38-0.83-0.57-1.71-0.57-2.65v-0.93l2.76-0.45v1.54c0,0.56,0.12,1.08,0.35,1.57  c0.23,0.49,0.54,0.92,0.93,1.28c0.39,0.36,0.84,0.65,1.35,0.86c0.51,0.21,1.04,0.32,1.59,0.32h1.84c0.55,0,1.08-0.08,1.59-0.25  c0.51-0.17,0.96-0.4,1.36-0.71c0.4-0.31,0.71-0.68,0.94-1.12c0.23-0.44,0.35-0.93,0.35-1.49c0-0.83-0.18-1.51-0.54-2.03  c-0.36-0.53-0.83-0.97-1.42-1.32c-0.59-0.35-1.26-0.65-2.02-0.88c-0.76-0.23-1.53-0.47-2.32-0.7c-0.79-0.23-1.57-0.5-2.32-0.8  c-0.76-0.3-1.43-0.7-2.02-1.19c-0.59-0.49-1.07-1.1-1.42-1.84c-0.36-0.74-0.54-1.66-0.54-2.76c0-0.93,0.18-1.79,0.54-2.57  c0.36-0.78,0.84-1.44,1.46-2c0.61-0.56,1.33-0.99,2.14-1.3c0.81-0.31,1.69-0.46,2.61-0.46h1.61c0.93,0,1.8,0.18,2.62,0.53  c0.82,0.35,1.54,0.84,2.15,1.46c0.61,0.62,1.1,1.34,1.45,2.17c0.35,0.83,0.53,1.71,0.53,2.64v0.09l-2.76,0.45v-0.7  c0-0.56-0.1-1.08-0.31-1.57c-0.21-0.49-0.49-0.92-0.85-1.28c-0.36-0.36-0.78-0.65-1.27-0.86c-0.49-0.21-1.01-0.32-1.56-0.32h-1.61  c-0.55,0-1.07,0.08-1.56,0.25c-0.49,0.17-0.91,0.4-1.27,0.71s-0.64,0.68-0.85,1.12c-0.21,0.44-0.31,0.93-0.31,1.49  c0,0.8,0.18,1.45,0.54,1.96c0.36,0.51,0.83,0.93,1.42,1.28c0.59,0.35,1.26,0.64,2.02,0.87c0.75,0.23,1.53,0.47,2.31,0.72  c0.78,0.25,1.55,0.53,2.31,0.85c0.76,0.32,1.43,0.72,2.02,1.22c0.59,0.5,1.07,1.12,1.42,1.86  C222.51,331.18,222.69,332.11,222.69,333.21z"></path>	<path class="st1" d="M252.97,339.08l-1.53-2.35c-0.63,0.86-1.41,1.54-2.36,2.05c-0.94,0.51-1.97,0.76-3.1,0.76h-0.7  c-0.93,0-1.8-0.18-2.62-0.53c-0.82-0.35-1.54-0.84-2.15-1.46c-0.61-0.62-1.1-1.34-1.45-2.17c-0.35-0.83-0.53-1.71-0.53-2.65v-10.44  c0-0.93,0.18-1.82,0.53-2.64c0.35-0.83,0.83-1.55,1.45-2.17c0.61-0.62,1.33-1.1,2.15-1.46c0.82-0.35,1.7-0.53,2.62-0.53h0.7  c1.03,0,1.99,0.21,2.87,0.63c0.88,0.42,1.64,1.01,2.27,1.76v-11.21h2.76v32.42H252.97z M251.13,322.13c0-0.56-0.1-1.08-0.31-1.57  c-0.21-0.49-0.49-0.92-0.85-1.28c-0.36-0.36-0.78-0.65-1.27-0.86c-0.49-0.21-1.01-0.32-1.56-0.32h-1.84  c-0.55,0-1.07,0.11-1.56,0.32c-0.49,0.21-0.91,0.5-1.27,0.86c-0.36,0.36-0.64,0.79-0.85,1.28c-0.21,0.49-0.31,1.01-0.31,1.57v10.76  c0,0.56,0.1,1.08,0.31,1.57c0.21,0.49,0.49,0.92,0.85,1.28s0.78,0.65,1.27,0.86c0.49,0.21,1.01,0.32,1.56,0.32h1.84  c0.55,0,1.07-0.11,1.56-0.32c0.49-0.21,0.91-0.5,1.27-0.86s0.64-0.79,0.85-1.28c0.21-0.49,0.31-1.01,0.31-1.57V322.13z"></path>	<path class="st1" d="M274.23,335.38c-0.35,0.83-0.83,1.55-1.45,2.17c-0.61,0.62-1.33,1.1-2.15,1.46c-0.82,0.35-1.7,0.53-2.62,0.53  h-1.84c-0.93,0-1.8-0.18-2.62-0.53c-0.82-0.35-1.54-0.84-2.15-1.46c-0.61-0.62-1.1-1.34-1.45-2.17c-0.35-0.83-0.53-1.71-0.53-2.65  v-10.44c0-0.93,0.18-1.82,0.53-2.64c0.35-0.83,0.83-1.55,1.45-2.17c0.61-0.62,1.33-1.1,2.15-1.46c0.82-0.35,1.7-0.53,2.62-0.53H268  c0.93,0,1.8,0.18,2.62,0.53c0.82,0.35,1.54,0.84,2.15,1.46c0.61,0.62,1.09,1.34,1.45,2.17c0.35,0.83,0.53,1.71,0.53,2.64v5.45  h-12.58v5.15c0,0.56,0.1,1.08,0.31,1.57c0.21,0.49,0.49,0.92,0.85,1.28c0.36,0.36,0.78,0.65,1.27,0.86  c0.49,0.21,1.01,0.32,1.56,0.32H268c0.55,0,1.07-0.11,1.56-0.32c0.49-0.21,0.91-0.5,1.27-0.86s0.64-0.79,0.85-1.28  c0.21-0.49,0.31-1.01,0.31-1.57v-1.54l2.76,0.45v0.93C274.75,333.67,274.58,334.55,274.23,335.38z M271.99,322.13  c0-0.56-0.1-1.08-0.31-1.57c-0.21-0.49-0.49-0.92-0.85-1.28c-0.36-0.36-0.78-0.65-1.27-0.86c-0.49-0.21-1.01-0.32-1.56-0.32h-1.84  c-0.55,0-1.07,0.11-1.56,0.32c-0.49,0.21-0.91,0.5-1.27,0.86c-0.36,0.36-0.64,0.79-0.85,1.28c-0.21,0.49-0.31,1.01-0.31,1.57v3.44  h9.82V322.13z"></path>	<path class="st1" d="M309.24,321.77c-0.41,0.96-0.98,1.81-1.69,2.53c-0.72,0.72-1.56,1.29-2.52,1.71  c-0.96,0.41-1.99,0.62-3.08,0.62h-7.29v12.46h-2.89v-32.42h10.18c1.09,0,2.12,0.21,3.08,0.62s1.81,0.98,2.52,1.71  c0.72,0.72,1.28,1.57,1.69,2.54c0.41,0.97,0.62,2.01,0.62,3.11v4.02C309.86,319.77,309.65,320.8,309.24,321.77z M306.96,314.65  c0-0.72-0.13-1.4-0.4-2.02c-0.27-0.63-0.64-1.18-1.11-1.65c-0.47-0.47-1.02-0.85-1.64-1.12c-0.62-0.27-1.29-0.41-2.01-0.41h-7.16  v14.4h7.16c0.72,0,1.39-0.14,2.01-0.41c0.62-0.27,1.17-0.64,1.64-1.11c0.47-0.47,0.84-1.01,1.11-1.64c0.27-0.63,0.4-1.3,0.4-2.02  V314.65z"></path>	<path class="st1" d="M321.21,318.58c-0.55,0-1.07,0.11-1.56,0.32c-0.49,0.21-0.91,0.5-1.27,0.86c-0.36,0.36-0.64,0.79-0.85,1.28  c-0.21,0.49-0.31,1.01-0.31,1.57v16.48h-2.76v-23.15h0.92l1.5,2.35c0.63-0.86,1.42-1.54,2.37-2.05c0.95-0.51,1.99-0.76,3.11-0.76  h1.61v3.1H321.21z"></path>	<path class="st1" d="M342.46,335.38c-0.35,0.83-0.83,1.55-1.45,2.17c-0.61,0.62-1.33,1.1-2.15,1.46c-0.82,0.35-1.7,0.53-2.62,0.53  h-1.84c-0.93,0-1.8-0.18-2.63-0.53c-0.82-0.35-1.54-0.84-2.15-1.46c-0.61-0.62-1.1-1.34-1.45-2.17c-0.35-0.83-0.53-1.71-0.53-2.65  v-10.44c0-0.93,0.18-1.82,0.53-2.64c0.35-0.83,0.83-1.55,1.45-2.17c0.61-0.62,1.33-1.1,2.15-1.46c0.82-0.35,1.7-0.53,2.63-0.53  h1.84c0.93,0,1.8,0.18,2.62,0.53c0.82,0.35,1.54,0.84,2.15,1.46c0.61,0.62,1.09,1.34,1.45,2.17c0.35,0.83,0.53,1.71,0.53,2.64  v10.44C342.99,333.67,342.81,334.55,342.46,335.38z M340.23,322.13c0-0.56-0.11-1.08-0.31-1.57c-0.21-0.49-0.49-0.92-0.85-1.28  c-0.36-0.36-0.78-0.65-1.27-0.86c-0.49-0.21-1.01-0.32-1.56-0.32h-1.84c-0.55,0-1.07,0.11-1.56,0.32c-0.49,0.21-0.91,0.5-1.27,0.86  c-0.36,0.36-0.64,0.79-0.85,1.28c-0.21,0.49-0.31,1.01-0.31,1.57v10.76c0,0.56,0.1,1.08,0.31,1.57c0.21,0.49,0.49,0.92,0.85,1.28  c0.36,0.36,0.78,0.65,1.27,0.86c0.49,0.21,1.01,0.32,1.56,0.32h1.84c0.55,0,1.07-0.11,1.56-0.32c0.49-0.21,0.91-0.5,1.27-0.86  c0.36-0.36,0.64-0.79,0.85-1.28c0.21-0.49,0.31-1.01,0.31-1.57V322.13z"></path>	<path class="st1" d="M356.87,339.08c-0.84,0-1.63-0.16-2.37-0.47c-0.74-0.32-1.38-0.75-1.93-1.31c-0.55-0.56-0.98-1.21-1.3-1.94  c-0.32-0.74-0.48-1.53-0.48-2.37v-14.4h-4.13v-2.64h4.13v-5.56l2.76-0.45v6.01h5.83v2.64h-5.83v14.54c0,0.47,0.09,0.9,0.26,1.3  c0.17,0.4,0.41,0.75,0.71,1.05c0.3,0.3,0.65,0.54,1.05,0.71c0.4,0.17,0.84,0.26,1.3,0.26h2.51v2.64H356.87z"></path>	<path class="st1" d="M379.27,335.38c-0.35,0.83-0.83,1.55-1.45,2.17c-0.61,0.62-1.33,1.1-2.15,1.46c-0.82,0.35-1.7,0.53-2.62,0.53  h-1.84c-0.93,0-1.8-0.18-2.63-0.53c-0.82-0.35-1.54-0.84-2.15-1.46c-0.61-0.62-1.1-1.34-1.45-2.17c-0.35-0.83-0.53-1.71-0.53-2.65  v-10.44c0-0.93,0.18-1.82,0.53-2.64c0.35-0.83,0.83-1.55,1.45-2.17c0.61-0.62,1.33-1.1,2.15-1.46c0.82-0.35,1.7-0.53,2.63-0.53  h1.84c0.93,0,1.8,0.18,2.62,0.53c0.82,0.35,1.54,0.84,2.15,1.46c0.61,0.62,1.09,1.34,1.45,2.17c0.35,0.83,0.53,1.71,0.53,2.64v5.45  h-12.58v5.15c0,0.56,0.1,1.08,0.31,1.57c0.21,0.49,0.49,0.92,0.85,1.28c0.36,0.36,0.78,0.65,1.27,0.86  c0.49,0.21,1.01,0.32,1.56,0.32h1.84c0.55,0,1.07-0.11,1.56-0.32c0.49-0.21,0.91-0.5,1.27-0.86c0.36-0.36,0.64-0.79,0.85-1.28  c0.21-0.49,0.31-1.01,0.31-1.57v-1.54l2.76,0.45v0.93C379.79,333.67,379.62,334.55,379.27,335.38z M377.03,322.13  c0-0.56-0.11-1.08-0.31-1.57c-0.21-0.49-0.49-0.92-0.85-1.28c-0.36-0.36-0.78-0.65-1.27-0.86c-0.49-0.21-1.01-0.32-1.56-0.32h-1.84  c-0.55,0-1.07,0.11-1.56,0.32c-0.49,0.21-0.91,0.5-1.27,0.86c-0.36,0.36-0.64,0.79-0.85,1.28c-0.21,0.49-0.31,1.01-0.31,1.57v3.44  h9.82V322.13z"></path>	<path class="st1" d="M400.13,335.38c-0.35,0.83-0.83,1.55-1.45,2.17c-0.61,0.62-1.33,1.1-2.15,1.46c-0.82,0.35-1.7,0.53-2.62,0.53  h-1.84c-0.93,0-1.8-0.18-2.62-0.53c-0.82-0.35-1.54-0.84-2.15-1.46c-0.61-0.62-1.1-1.34-1.45-2.17c-0.35-0.83-0.53-1.71-0.53-2.65  v-10.44c0-0.93,0.18-1.82,0.53-2.64c0.35-0.83,0.83-1.55,1.45-2.17c0.61-0.62,1.33-1.1,2.15-1.46c0.82-0.35,1.7-0.53,2.62-0.53  h1.84c0.93,0,1.8,0.18,2.62,0.53c0.82,0.35,1.54,0.84,2.15,1.46c0.61,0.62,1.09,1.34,1.45,2.17c0.35,0.83,0.53,1.71,0.53,2.64v0.93  l-2.76,0.45v-1.54c0-0.56-0.11-1.08-0.31-1.57c-0.21-0.49-0.49-0.92-0.85-1.28c-0.36-0.36-0.78-0.65-1.27-0.86  c-0.49-0.21-1.01-0.32-1.56-0.32h-1.84c-0.55,0-1.07,0.11-1.56,0.32c-0.49,0.21-0.91,0.5-1.27,0.86c-0.36,0.36-0.64,0.79-0.85,1.28  c-0.21,0.49-0.31,1.01-0.31,1.57v10.76c0,0.56,0.1,1.08,0.31,1.57c0.21,0.49,0.49,0.92,0.85,1.28c0.36,0.36,0.78,0.65,1.27,0.86  c0.49,0.21,1.01,0.32,1.56,0.32h1.84c0.55,0,1.07-0.11,1.56-0.32c0.49-0.21,0.91-0.5,1.27-0.86c0.36-0.36,0.64-0.79,0.85-1.28  c0.21-0.49,0.31-1.01,0.31-1.57v-1.54l2.76,0.45v0.93C400.65,333.67,400.48,334.55,400.13,335.38z"></path>	<path class="st1" d="M414.54,339.08c-0.84,0-1.63-0.16-2.37-0.47c-0.74-0.32-1.38-0.75-1.93-1.31c-0.55-0.56-0.98-1.21-1.3-1.94  c-0.32-0.74-0.48-1.53-0.48-2.37v-14.4h-4.13v-2.64h4.13v-5.56l2.76-0.45v6.01h5.83v2.64h-5.83v14.54c0,0.47,0.09,0.9,0.26,1.3  c0.17,0.4,0.41,0.75,0.71,1.05c0.3,0.3,0.65,0.54,1.05,0.71c0.4,0.17,0.84,0.26,1.3,0.26h2.51v2.64H414.54z"></path>	<path class="st1" d="M422.81,310.37v-3.71h3.21v3.71H422.81z M423.04,339.08v-23.15h2.76v23.15H423.04z"></path>	<path class="st1" d="M447.05,335.38c-0.35,0.83-0.83,1.55-1.45,2.17c-0.61,0.62-1.33,1.1-2.15,1.46c-0.82,0.35-1.7,0.53-2.62,0.53  h-1.84c-0.93,0-1.8-0.18-2.63-0.53c-0.82-0.35-1.54-0.84-2.15-1.46c-0.61-0.62-1.1-1.34-1.45-2.17c-0.35-0.83-0.53-1.71-0.53-2.65  v-10.44c0-0.93,0.18-1.82,0.53-2.64c0.35-0.83,0.83-1.55,1.45-2.17c0.61-0.62,1.33-1.1,2.15-1.46c0.82-0.35,1.7-0.53,2.63-0.53  h1.84c0.93,0,1.8,0.18,2.62,0.53c0.82,0.35,1.54,0.84,2.15,1.46c0.61,0.62,1.09,1.34,1.45,2.17c0.35,0.83,0.53,1.71,0.53,2.64  v10.44C447.58,333.67,447.4,334.55,447.05,335.38z M444.82,322.13c0-0.56-0.11-1.08-0.31-1.57c-0.21-0.49-0.49-0.92-0.85-1.28  c-0.36-0.36-0.78-0.65-1.27-0.86c-0.49-0.21-1.01-0.32-1.56-0.32h-1.84c-0.55,0-1.07,0.11-1.56,0.32c-0.49,0.21-0.91,0.5-1.27,0.86  c-0.36,0.36-0.64,0.79-0.85,1.28c-0.21,0.49-0.31,1.01-0.31,1.57v10.76c0,0.56,0.1,1.08,0.31,1.57c0.21,0.49,0.49,0.92,0.85,1.28  c0.36,0.36,0.78,0.65,1.27,0.86c0.49,0.21,1.01,0.32,1.56,0.32h1.84c0.55,0,1.07-0.11,1.56-0.32c0.49-0.21,0.91-0.5,1.27-0.86  c0.36-0.36,0.64-0.79,0.85-1.28c0.21-0.49,0.31-1.01,0.31-1.57V322.13z"></path>	<path class="st1" d="M465.68,339.08v-16.95c0-0.56-0.11-1.08-0.31-1.57c-0.21-0.49-0.49-0.92-0.85-1.28  c-0.36-0.36-0.78-0.65-1.27-0.86c-0.49-0.21-1.01-0.32-1.56-0.32h-1.84c-0.55,0-1.07,0.11-1.56,0.32c-0.49,0.21-0.91,0.5-1.27,0.86  c-0.36,0.36-0.64,0.79-0.85,1.28c-0.21,0.49-0.31,1.01-0.31,1.57v16.95h-2.76v-23.15h0.92l1.5,2.35c0.63-0.86,1.42-1.54,2.37-2.05  c0.95-0.51,1.99-0.76,3.11-0.76h0.7c0.93,0,1.8,0.18,2.62,0.53c0.82,0.35,1.54,0.84,2.15,1.46c0.61,0.62,1.09,1.34,1.45,2.17  c0.35,0.83,0.53,1.71,0.53,2.64v16.8H465.68z"></path>	<path class="st1" d="M485.44,339.08v-32.42h2.89v32.42H485.44z"></path>	<path class="st1" d="M507.35,339.08v-16.95c0-0.56-0.11-1.08-0.31-1.57c-0.21-0.49-0.49-0.92-0.85-1.28  c-0.36-0.36-0.78-0.65-1.27-0.86c-0.49-0.21-1.01-0.32-1.56-0.32h-1.84c-0.55,0-1.07,0.11-1.56,0.32c-0.49,0.21-0.91,0.5-1.27,0.86  c-0.36,0.36-0.64,0.79-0.85,1.28c-0.21,0.49-0.31,1.01-0.31,1.57v16.95h-2.76v-23.15h0.92l1.5,2.35c0.63-0.86,1.42-1.54,2.37-2.05  c0.95-0.51,1.99-0.76,3.11-0.76h0.7c0.93,0,1.8,0.18,2.62,0.53c0.82,0.35,1.54,0.84,2.15,1.46c0.61,0.62,1.09,1.34,1.45,2.17  c0.35,0.83,0.53,1.71,0.53,2.64v16.8H507.35z"></path>	<path class="st1" d="M530.05,339.08l-1.53-2.35c-0.63,0.86-1.41,1.54-2.36,2.05c-0.94,0.51-1.97,0.76-3.1,0.76h-0.7  c-0.93,0-1.8-0.18-2.63-0.53c-0.82-0.35-1.54-0.84-2.15-1.46c-0.61-0.62-1.1-1.34-1.45-2.17c-0.35-0.83-0.53-1.71-0.53-2.65v-10.44  c0-0.93,0.18-1.82,0.53-2.64c0.35-0.83,0.83-1.55,1.45-2.17c0.61-0.62,1.33-1.1,2.15-1.46c0.82-0.35,1.7-0.53,2.63-0.53h0.7  c1.03,0,1.99,0.21,2.87,0.63c0.88,0.42,1.64,1.01,2.27,1.76v-11.21h2.76v32.42H530.05z M528.21,322.13c0-0.56-0.11-1.08-0.31-1.57  c-0.21-0.49-0.49-0.92-0.85-1.28c-0.36-0.36-0.78-0.65-1.27-0.86c-0.49-0.21-1.01-0.32-1.56-0.32h-1.84  c-0.55,0-1.07,0.11-1.56,0.32c-0.49,0.21-0.91,0.5-1.27,0.86c-0.36,0.36-0.64,0.79-0.85,1.28c-0.21,0.49-0.31,1.01-0.31,1.57v10.76  c0,0.56,0.1,1.08,0.31,1.57c0.21,0.49,0.49,0.92,0.85,1.28c0.36,0.36,0.78,0.65,1.27,0.86c0.49,0.21,1.01,0.32,1.56,0.32h1.84  c0.55,0,1.07-0.11,1.56-0.32c0.49-0.21,0.91-0.5,1.27-0.86c0.36-0.36,0.64-0.79,0.85-1.28c0.21-0.49,0.31-1.01,0.31-1.57V322.13z"></path>	<path class="st1" d="M537.18,310.37v-3.71h3.21v3.71H537.18z M537.41,339.08v-23.15h2.76v23.15H537.41z"></path>	<path class="st1" d="M553.8,339.08h-1.37l-8.14-23.15h2.76l5.99,17.54l0.09,1.2l0.09-1.2l5.97-17.54h2.76L553.8,339.08z"></path>	<path class="st1" d="M565.85,310.37v-3.71h3.21v3.71H565.85z M566.07,339.08v-23.15h2.76v23.15H566.07z"></path>	<path class="st1" d="M589.69,339.08l-1.53-2.35c-0.63,0.86-1.41,1.54-2.36,2.05c-0.94,0.51-1.97,0.76-3.1,0.76h-0.7  c-0.93,0-1.8-0.18-2.62-0.53c-0.82-0.35-1.54-0.84-2.15-1.46c-0.61-0.62-1.1-1.34-1.45-2.17c-0.35-0.83-0.53-1.71-0.53-2.65v-10.44  c0-0.93,0.18-1.82,0.53-2.64c0.35-0.83,0.83-1.55,1.45-2.17c0.61-0.62,1.33-1.1,2.15-1.46c0.82-0.35,1.7-0.53,2.62-0.53h0.7  c1.03,0,1.99,0.21,2.87,0.63c0.88,0.42,1.64,1.01,2.27,1.76v-11.21h2.76v32.42H589.69z M587.85,322.13c0-0.56-0.11-1.08-0.31-1.57  c-0.21-0.49-0.49-0.92-0.85-1.28c-0.36-0.36-0.78-0.65-1.27-0.86c-0.49-0.21-1.01-0.32-1.56-0.32h-1.84  c-0.55,0-1.07,0.11-1.56,0.32c-0.49,0.21-0.91,0.5-1.27,0.86c-0.36,0.36-0.64,0.79-0.85,1.28c-0.21,0.49-0.31,1.01-0.31,1.57v10.76  c0,0.56,0.1,1.08,0.31,1.57c0.21,0.49,0.49,0.92,0.85,1.28c0.36,0.36,0.78,0.65,1.27,0.86c0.49,0.21,1.01,0.32,1.56,0.32h1.84  c0.55,0,1.07-0.11,1.56-0.32c0.49-0.21,0.91-0.5,1.27-0.86c0.36-0.36,0.64-0.79,0.85-1.28c0.21-0.49,0.31-1.01,0.31-1.57V322.13z"></path>	<path class="st1" d="M610.55,339.08l-1.53-2.35c-0.63,0.86-1.41,1.54-2.36,2.05c-0.94,0.51-1.97,0.76-3.1,0.76h-0.7  c-0.93,0-1.8-0.18-2.63-0.53c-0.82-0.35-1.54-0.84-2.15-1.46c-0.61-0.62-1.1-1.34-1.45-2.17c-0.35-0.83-0.53-1.71-0.53-2.65v-16.8  h2.76v16.95c0,0.56,0.1,1.08,0.31,1.57c0.21,0.49,0.49,0.92,0.85,1.28c0.36,0.36,0.78,0.65,1.27,0.86  c0.49,0.21,1.01,0.32,1.56,0.32h1.84c0.55,0,1.07-0.11,1.56-0.32c0.49-0.21,0.91-0.5,1.27-0.86c0.36-0.36,0.64-0.79,0.85-1.28  c0.21-0.49,0.31-1.01,0.31-1.57v-16.95h2.76v23.15H610.55z"></path>	<path class="st1" d="M631.8,335.38c-0.35,0.83-0.83,1.55-1.45,2.17c-0.61,0.62-1.33,1.1-2.15,1.46c-0.82,0.35-1.7,0.53-2.62,0.53  h-1.84c-0.93,0-1.8-0.18-2.62-0.53c-0.82-0.35-1.54-0.84-2.15-1.46c-0.61-0.62-1.1-1.34-1.45-2.17c-0.35-0.83-0.53-1.71-0.53-2.65  v-10.44c0-0.93,0.18-1.82,0.53-2.64c0.35-0.83,0.83-1.55,1.45-2.17c0.61-0.62,1.33-1.1,2.15-1.46c0.82-0.35,1.7-0.53,2.62-0.53  h1.84c0.93,0,1.8,0.18,2.62,0.53c0.82,0.35,1.54,0.84,2.15,1.46c0.61,0.62,1.09,1.34,1.45,2.17c0.35,0.83,0.53,1.71,0.53,2.64v5.45  h-12.58v5.15c0,0.56,0.1,1.08,0.31,1.57c0.21,0.49,0.49,0.92,0.85,1.28c0.36,0.36,0.78,0.65,1.27,0.86  c0.49,0.21,1.01,0.32,1.56,0.32h1.84c0.55,0,1.07-0.11,1.56-0.32c0.49-0.21,0.91-0.5,1.27-0.86c0.36-0.36,0.64-0.79,0.85-1.28  c0.21-0.49,0.31-1.01,0.31-1.57v-1.54l2.76,0.45v0.93C632.33,333.67,632.16,334.55,631.8,335.38z M629.57,322.13  c0-0.56-0.11-1.08-0.31-1.57c-0.21-0.49-0.49-0.92-0.85-1.28c-0.36-0.36-0.78-0.65-1.27-0.86c-0.49-0.21-1.01-0.32-1.56-0.32h-1.84  c-0.55,0-1.07,0.11-1.56,0.32c-0.49,0.21-0.91,0.5-1.27,0.86c-0.36,0.36-0.64,0.79-0.85,1.28c-0.21,0.49-0.31,1.01-0.31,1.57v3.44  h9.82V322.13z"></path>	<path class="st1" d="M638.77,339.08v-32.42h2.76v32.42H638.77z"></path>	<path class="st1" d="M648.89,339.08v-32.42h2.76v32.42H648.89z"></path>	<path class="st1" d="M672.9,335.38c-0.35,0.83-0.83,1.55-1.45,2.17c-0.61,0.62-1.33,1.1-2.15,1.46c-0.82,0.35-1.7,0.53-2.62,0.53  h-1.84c-0.93,0-1.8-0.18-2.63-0.53c-0.82-0.35-1.54-0.84-2.15-1.46c-0.61-0.62-1.1-1.34-1.45-2.17c-0.35-0.83-0.53-1.71-0.53-2.65  v-10.44c0-0.93,0.18-1.82,0.53-2.64c0.35-0.83,0.83-1.55,1.45-2.17c0.61-0.62,1.33-1.1,2.15-1.46c0.82-0.35,1.7-0.53,2.63-0.53  h1.84c0.93,0,1.8,0.18,2.62,0.53c0.82,0.35,1.54,0.84,2.15,1.46c0.61,0.62,1.09,1.34,1.45,2.17c0.35,0.83,0.53,1.71,0.53,2.64v5.45  h-12.58v5.15c0,0.56,0.1,1.08,0.31,1.57c0.21,0.49,0.49,0.92,0.85,1.28c0.36,0.36,0.78,0.65,1.27,0.86  c0.49,0.21,1.01,0.32,1.56,0.32h1.84c0.55,0,1.07-0.11,1.56-0.32c0.49-0.21,0.91-0.5,1.27-0.86c0.36-0.36,0.64-0.79,0.85-1.28  c0.21-0.49,0.31-1.01,0.31-1.57v-1.54l2.76,0.45v0.93C673.42,333.67,673.25,334.55,672.9,335.38z M670.67,322.13  c0-0.56-0.11-1.08-0.31-1.57c-0.21-0.49-0.49-0.92-0.85-1.28c-0.36-0.36-0.78-0.65-1.27-0.86c-0.49-0.21-1.01-0.32-1.56-0.32h-1.84  c-0.55,0-1.07,0.11-1.56,0.32c-0.49,0.21-0.91,0.5-1.27,0.86c-0.36,0.36-0.64,0.79-0.85,1.28c-0.21,0.49-0.31,1.01-0.31,1.57v3.44  h9.82V322.13z"></path></g></svg>