<svg xmlns="http://www.w3.org/2000/svg" viewBox="0 0 512 512">
  <rect width="512" height="512" rx="112" fill="#EC6925"/>
  <svg x="86" y="86" width="340" height="340" viewBox="205 -6 290 192" preserveAspectRatio="xMidYMid meet">
    <path fill="#fff" d="M363.12,0.35h-82.14c-40.13,0-72.78,32.65-72.78,72.78c0,33.15,22.29,61.17,52.66,69.92l9.03-18.93 c-20.47-4.45-36.5-20.93-40.26-41.64h93.13L363.12,0.35z M230.02,61.88c5.15-23.39,26.05-40.94,50.96-40.94h49.08l-20.12,40.94 H230.02z"/>
    <path fill="#fff" d="M453.16,11.8c-2.88-1.84-5.9-3.49-9.04-4.92l-0.29-0.16l-0.01,0.02c-9.05-4.08-19.08-6.37-29.63-6.4L395.64,0.1 l-0.2-0.1h-7.07L358,63l-55.68,115.5h22.86l27.92-57.92l0,0l48.19-99.98l12.48,0.34l0.28,0c9.64,0,18.68,2.64,26.43,7.22l0.11,0.08 l0.59,0.37c0.42,0.24,0.81,0.5,1.22,0.75c14.33,9.31,23.83,25.45,23.83,43.77c0,11.47-3.21,23.02-9.43,32.38 c-9.54,12.51-24.6,20.61-41.51,20.61h-4.53l-10.03,20.59h14.56c40.13,0,72.78-32.65,72.78-72.78 C488.08,48.58,474.73,24.98,453.16,11.8"/>
    <polygon fill="#fff" points="280.51,124.53 254.77,178.5 277.58,178.5 303.32,124.53 "/>
    <polygon fill="#fff" points="396.49,82.02 349.65,178.5 372.54,178.5 419.38,82.02 "/>
  </svg>
</svg>
